<?xml version="1.0" encoding="iso-8859-1"?>
<!-- Generator: Adobe Illustrator 21.0.0, SVG Export Plug-In . SVG Version: 6.00 Build 0)  -->
<svg xmlns="http://www.w3.org/2000/svg" xmlns:xlink="http://www.w3.org/1999/xlink" version="1.1" id="Capa_1" x="0px" y="0px" viewBox="0 0 512 512" style="enable-background:new 0 0 512 512;" xml:space="preserve" width="512" height="512">
<g>
	<path d="M226,431.667H95.333c-8.284,0-15-6.716-15-15v-50.333c0-8.284-6.716-15-15-15H15c-8.284,0-15,6.716-15,15V497   c0,8.284,6.716,15,15,15h211c8.284,0,15-6.716,15-15v-50.333C241,438.382,234.284,431.667,226,431.667z"/>
	<path d="M497,431.667H286c-8.284,0-15,6.716-15,15V497c0,8.284,6.716,15,15,15h211c8.284,0,15-6.716,15-15v-50.333   C512,438.382,505.284,431.667,497,431.667z"/>
	<path d="M321.333,65.333V15c0-8.284-6.716-15-15-15H175.667c-8.284,0-15,6.716-15,15v130.667c0,8.284,6.716,15,15,15H226   c8.284,0,15-6.716,15-15V95.333c0-8.284,6.716-15,15-15h50.333C314.618,80.333,321.333,73.618,321.333,65.333z"/>
	<path d="M497,321.333h-50.333c-8.284,0-15-6.716-15-15V256c0-8.284-6.716-15-15-15h-50.333c-8.284,0-15,6.716-15,15v50.333   c0,8.284-6.716,15-15,15H286c-8.284,0-15,6.716-15,15v50.333c0,8.284,6.716,15,15,15h211c8.284,0,15-6.716,15-15v-50.333   C512,328.049,505.284,321.333,497,321.333z"/>
</g>















</svg>
